# xmcd
#
# Track frame offsets: 
#        150
#        14055
#        24151
#        35160
#        51441
#        60313
#        68115
#        77939
#        89052
#        96985
#        107179
#
# Disc length: 1557 seconds
#
# Revision: 0
# Processed by: cddbd v1.5.2PL0 Copyright (c) Steve Scherf et al.
# Submitted via: ExactAudioCopy v0.95b3
#
DISCID=9806130b
DTITLE=Duane Eddy  - Have 'Twangy' Guitar Will Travel (1958) - 192K
DYEAR=1900
DGENRE=
TTITLE0=Lonesome Road Blues
TTITLE1=I Almost Lost My Mind
TTITLE2=Rebel Rouser
TTITLE3=Three 30 Blues
TTITLE4=Cannonball
TTITLE5=The Lonely One
TTITLE6=Detour [Stereo]
TTITLE7=Stalkin'
TTITLE8=Ramrod
TTITLE9=Moovin' 'N' Groovin'
TTITLE10=Loving You [Master]
EXTD=
EXTT0=
EXTT1=
EXTT2=
EXTT3=
EXTT4=
EXTT5=
EXTT6=
EXTT7=
EXTT8=
EXTT9=
EXTT10=
PLAYORDER=
